<svg xmlns="http://www.w3.org/2000/svg" viewBox="0 0 62.99 44.81"><defs><style>.cls-1{fill:#fff;}</style></defs><title>likeAsset 6@72x</title><g id="Layer_2" data-name="Layer 2"><g id="Layer_1-2" data-name="Layer 1"><path class="cls-1" d="M50.75,44.81a12.35,12.35,0,0,1-4.85-1C44,43,38.27,40.58,38.27,33.54V31.32h4.44v2.22c0,2.91,1.43,4.7,4.92,6.19a7.54,7.54,0,0,0,6.9-.41c2-1.27,3.09-3.31,3.2-6.23a3.2,3.2,0,0,0-3.22-3.36H23.43a12.38,12.38,0,0,1,.47,3.44c0,4.78-2.71,8.56-7.62,10.64a12,12,0,0,1-11-.72C3,41.67.22,38.8,0,33.26v0a7.64,7.64,0,0,1,7.63-7.93h6.53a15.52,15.52,0,0,0-2.73-1.23l-4.18-.3A7.29,7.29,0,0,1,0,16.53V7.46A7.47,7.47,0,0,1,7.47,0H29.89C39.71.87,50,5.52,60.35,13.83l.47.38a5.53,5.53,0,0,1-3.36,9.92h-16A11.67,11.67,0,0,1,29.84,12.47V7.18h4.44v5.29a7.23,7.23,0,0,0,7.23,7.22h16a1.09,1.09,0,0,0,1.09-1.09,1.13,1.13,0,0,0-.45-.89c-.14-.1-.31-.24-.52-.41-9.67-7.73-19.08-12-28-12.86H7.47a3,3,0,0,0-3,3v9.07a2.82,2.82,0,0,0,3,2.79h.11l4.73.34.21.06a19,19,0,0,1,8.62,5.56H54.51a7.65,7.65,0,0,1,7.66,7.92v0c-.22,5.54-3,8.41-5.3,9.83A11.6,11.6,0,0,1,50.75,44.81ZM7.64,29.73a3.15,3.15,0,0,0-2.31,1,3.21,3.21,0,0,0-.89,2.34v0c.12,2.93,1.17,5,3.21,6.24a7.52,7.52,0,0,0,6.89.41c3.27-1.39,4.92-3.59,4.92-6.56a7.68,7.68,0,0,0-.79-3.44Z"/></g></g></svg>